<?xml version="1.0" standalone="no"?>
<!DOCTYPE svg PUBLIC "-//W3C//DTD SVG 20010904//EN"
 "http://www.w3.org/TR/2001/REC-SVG-20010904/DTD/svg10.dtd">
<svg version="1.0" xmlns="http://www.w3.org/2000/svg"
 width="700.000000pt" height="700.000000pt" viewBox="0 0 700.000000 700.000000"
 preserveAspectRatio="xMidYMid meet">
<metadata>
Created by potrace 1.14, written by Peter Selinger 2001-2017
</metadata>
<g transform="translate(0.000000,700.000000) scale(0.100000,-0.100000)"
fill="#000000" stroke="none">
<path d="M1630 6993 c-371 -65 -644 -315 -732 -670 l-22 -88 0 -2735 0 -2735
22 -88 c64 -258 236 -475 467 -586 81 -40 104 -47 210 -71 76 -18 172 -18
1945 -17 1026 2 1879 6 1895 10 247 63 429 183 559 370 48 70 105 200 128 293
l21 89 2 2705 c1 2170 -2 2721 -12 2788 -49 316 -260 574 -559 687 -146 55
-71 53 -2059 53 -1012 -1 -1851 -3 -1865 -5z m3730 -447 c155 -40 270 -155
310 -309 17 -69 18 -186 18 -2734 0 -1500 -4 -2684 -9 -2710 -22 -116 -112
-241 -211 -296 -117 -64 18 -60 -1942 -61 -1292 -1 -1798 2 -1847 10 -140 24
-262 115 -320 237 -16 35 -33 75 -36 88 -10 37 -12 5383 -2 5436 35 185 191
328 383 352 28 3 848 6 1821 5 1621 -1 1775 -3 1835 -18z"/>
<path d="M4525 4363 c-46 -14 -90 -55 -633 -598 -321 -321 -590 -589 -598
-596 -13 -10 -56 28 -282 254 -147 146 -279 270 -293 276 -49 18 -112 23 -155
11 -125 -35 -192 -185 -136 -302 26 -52 708 -736 761 -763 48 -24 138 -24 185
1 20 10 342 323 718 699 511 510 685 691 700 724 78 171 -84 348 -267 294z"/>
</g>
</svg>
